<svg width="174" height="27" viewBox="0 0 174 27" fill="none" xmlns="http://www.w3.org/2000/svg">
<path d="M0.2 26V11.9H5.16C9.08 11.9 10.98 12.58 10.98 15.36C10.98 18 9.1 18.06 7.6 18.18V18.98C9.74 19.06 12.02 19.26 12.02 22.26C12.02 25.46 9.08 26 5.4 26H0.2ZM3.4 17.26H5.56C6.86 17.26 7.78 17.26 7.78 15.98C7.78 14.7 6.86 14.7 5.56 14.7H3.4V17.26ZM3.4 23.2H5.8C7.7 23.2 8.82 23.2 8.82 21.64C8.82 20.06 7.7 20.06 5.8 20.06H3.4V23.2ZM12.832 18.94C12.832 14.84 15.552 11.7 20.032 11.7C24.492 11.7 27.212 14.84 27.212 18.94C27.212 23.06 24.492 26.2 20.032 26.2C15.552 26.2 12.832 23.06 12.832 18.94ZM16.032 18.94C16.032 21.66 17.372 23.4 20.032 23.4C22.692 23.4 24.012 21.66 24.012 18.94C24.012 16.24 22.692 14.5 20.032 14.5C17.372 14.5 16.032 16.24 16.032 18.94ZM28.6133 18.94C28.6133 14.84 31.3333 11.7 35.8133 11.7C40.2733 11.7 42.9933 14.84 42.9933 18.94C42.9933 23.06 40.2733 26.2 35.8133 26.2C31.3333 26.2 28.6133 23.06 28.6133 18.94ZM31.8133 18.94C31.8133 21.66 33.1533 23.4 35.8133 23.4C38.4733 23.4 39.7933 21.66 39.7933 18.94C39.7933 16.24 38.4733 14.5 35.8133 14.5C33.1533 14.5 31.8133 16.24 31.8133 18.94ZM58.5894 11.9L50.0894 18.96L58.5894 26H53.9094L48.0094 21.02V26H44.8094V11.9H48.0094V16.9L53.9094 11.9H58.5894ZM61.1405 26V0.619998H72.4805L76.1885 24.56H77.6285L81.3365 0.619998H92.6765V26H86.9165V5.66L87.9965 2.06H86.5565L82.4885 26H71.3285L67.2605 2.06H65.8205L66.9005 5.66V26H61.1405ZM113.64 0.619998H119.796L110.364 17.828V26H104.604V17.828L95.2083 0.619998H101.364L106.764 11.204V14.444H108.204V11.204L113.64 0.619998ZM133.524 11.9V14.7H128.924V26H125.724V14.7H121.104V11.9H133.524ZM134.917 20.76V11.9H138.117V19.34C138.117 21.86 138.337 23.4 141.277 23.4C144.217 23.4 144.457 21.86 144.457 19.34V11.9H147.657V20.76C147.657 24.28 145.457 26.2 141.277 26.2C137.097 26.2 134.917 24.28 134.917 20.76ZM149.458 26V11.9H154.918C158.278 11.9 161.198 12.68 161.198 15.84C161.198 18.16 159.318 18.8 157.618 19V19.8H159.678C160.778 19.8 161.378 20.4 161.378 21.5V26H158.178V21.04H152.658V26H149.458ZM152.658 18.24H154.918C156.818 18.24 157.998 18.24 157.998 16.48C157.998 14.7 156.818 14.7 154.918 14.7H152.658V18.24ZM163.384 26V11.9H173.444V14.7H166.584V18.76L172.984 18.36V21.2L166.584 21.6V26H163.384Z" fill="white"/>
</svg>
